{
  "accessors": [
    {
      "bufferView": 2,
      "componentType": 5126,
      "count": 6796,
      "max": [
        3.773850917816162,
        0.8259990215301514,
        7.810004234313965
      ],
      "min": [
        -3.776350975036621,
        -0.27834099531173706,
        -7.809990882873535
      ],
      "type": "VEC3"
    },
    {
      "bufferView": 2,
      "byteOffset": 81552,
      "componentType": 5126,
      "count": 6796,
      "max": [
        1.0,
        1.0,
        1.0
      ],
      "min": [
        -1.0,
        -1.0,
        -1.0
      ],
      "type": "VEC3"
    },
    {
      "bufferView": 1,
      "componentType": 5126,
      "count": 6796,
      "max": [
        15.851277351379395,
        13.009455680847168
      ],
      "min": [
        -15.851277351379395,
        -3.735011100769043
      ],
      "type": "VEC2"
    },
    {
      "bufferView": 0,
      "componentType": 5125,
      "count": 22944,
      "type": "SCALAR"
    },
    {
      "bufferView": 2,
      "byteOffset": 163104,
      "componentType": 5126,
      "count": 1172,
      "max": [
        2.2939839363098145,
        0.7349990010261536,
        6.483156204223633
      ],
      "min": [
        1.9137779474258423,
        0.6849989891052246,
        6.104012966156006
      ],
      "type": "VEC3"
    },
    {
      "bufferView": 2,
      "byteOffset": 177168,
      "componentType": 5126,
      "count": 1172,
      "max": [
        0.7248296141624451,
        1.0,
        0.7226907014846802
      ],
      "min": [
        -0.7247796654701233,
        -1.0,
        -0.7226907014846802
      ],
      "type": "VEC3"
    },
    {
      "bufferView": 1,
      "byteOffset": 54368,
      "componentType": 5126,
      "count": 1172,
      "max": [
        0.18957200646400452,
        0.19657599925994873
      ],
      "min": [
        -0.7465329766273499,
        -0.19010299444198608
      ],
      "type": "VEC2"
    },
    {
      "bufferView": 0,
      "byteOffset": 91776,
      "componentType": 5125,
      "count": 6318,
      "type": "SCALAR"
    },
    {
      "bufferView": 2,
      "byteOffset": 191232,
      "componentType": 5126,
      "count": 980,
      "max": [
        3.616966962814331,
        0.12560099363327026,
        7.693163871765137
      ],
      "min": [
        -3.616981029510498,
        -0.28200098872184753,
        -7.693151950836182
      ],
      "type": "VEC3"
    },
    {
      "bufferView": 2,
      "byteOffset": 202992,
      "componentType": 5126,
      "count": 980,
      "max": [
        1.0,
        1.0,
        1.0
      ],
      "min": [
        -1.0,
        -1.0,
        -1.0
      ],
      "type": "VEC3"
    },
    {
      "bufferView": 1,
      "byteOffset": 63744,
      "componentType": 5126,
      "count": 980,
      "max": [
        1.0,
        1.0
      ],
      "min": [
        0.0,
        0.0
      ],
      "type": "VEC2"
    },
    {
      "bufferView": 0,
      "byteOffset": 117048,
      "componentType": 5125,
      "count": 2988,
      "type": "SCALAR"
    },
    {
      "bufferView": 2,
      "byteOffset": 214752,
      "componentType": 5126,
      "count": 1504,
      "max": [
        2.7601799964904785,
        0.8849989771842957,
        6.951099872589111
      ],
      "min": [
        1.4451210498809814,
        0.28199899196624756,
        5.636067867279053
      ],
      "type": "VEC3"
    },
    {
      "bufferView": 2,
      "byteOffset": 232800,
      "componentType": 5126,
      "count": 1504,
      "max": [
        1.0,
        1.0,
        1.0
      ],
      "min": [
        -1.0,
        -1.0,
        -1.0
      ],
      "type": "VEC3"
    },
    {
      "bufferView": 1,
      "byteOffset": 71584,
      "componentType": 5126,
      "count": 1504,
      "max": [
        0.6575289964675903,
        1.1327769756317139
      ],
      "min": [
        -0.6575289964675903,
        -3.0569889545440674
      ],
      "type": "VEC2"
    },
    {
      "bufferView": 0,
      "byteOffset": 129000,
      "componentType": 5125,
      "count": 5952,
      "type": "SCALAR"
    },
    {
      "bufferView": 2,
      "byteOffset": 250848,
      "componentType": 5126,
      "count": 1606,
      "max": [
        3.621967077255249,
        0.611998975276947,
        7.698163986206055
      ],
      "min": [
        -3.621980905532837,
        0.1255989968776703,
        -7.6981520652771
      ],
      "type": "VEC3"
    },
    {
      "bufferView": 2,
      "byteOffset": 270120,
      "componentType": 5126,
      "count": 1606,
      "max": [
        1.0,
        1.0,
        1.0
      ],
      "min": [
        -1.0,
        -1.0,
        -1.0
      ],
      "type": "VEC3"
    },
    {
      "bufferView": 1,
      "byteOffset": 83616,
      "componentType": 5126,
      "count": 1606,
      "max": [
        1.0,
        1.0
      ],
      "min": [
        0.0,
        0.0
      ],
      "type": "VEC2"
    },
    {
      "bufferView": 0,
      "byteOffset": 152808,
      "componentType": 5125,
      "count": 6354,
      "type": "SCALAR"
    },
    {
      "bufferView": 2,
      "byteOffset": 289392,
      "componentType": 5126,
      "count": 322,
      "max": [
        -1.3249380588531494,
        0.611998975276947,
        6.536841869354248
      ],
      "min": [
        -2.4207589626312256,
        0.28199899196624756,
        5.953277111053467
      ],
      "type": "VEC3"
    },
    {
      "bufferView": 2,
      "byteOffset": 293256,
      "componentType": 5126,
      "count": 322,
      "max": [
        1.0,
        1.0,
        1.0
      ],
      "min": [
        -1.0,
        -1.0,
        -1.0
      ],
      "type": "VEC3"
    },
    {
      "bufferView": 1,
      "byteOffset": 96464,
      "componentType": 5126,
      "count": 322,
      "max": [
        0.2917959988117218,
        0.4583579897880554
      ],
      "min": [
        -0.33000001311302185,
        -0.3000980019569397
      ],
      "type": "VEC2"
    },
    {
      "bufferView": 0,
      "byteOffset": 178224,
      "componentType": 5125,
      "count": 912,
      "type": "SCALAR"
    },
    {
      "bufferView": 2,
      "byteOffset": 297120,
      "componentType": 5126,
      "count": 1200,
      "max": [
        3.735011100769043,
        0.27781298756599426,
        6.247070789337158
      ],
      "min": [
        -3.735011100769043,
        -0.27781298756599426,
        -7.609991073608398
      ],
      "type": "VEC3"
    },
    {
      "bufferView": 2,
      "byteOffset": 311520,
      "componentType": 5126,
      "count": 1200,
      "max": [
        1.0,
        1.0,
        1.0
      ],
      "min": [
        -1.0,
        -1.0,
        -1.0
      ],
      "type": "VEC3"
    },
    {
      "bufferView": 1,
      "byteOffset": 99040,
      "componentType": 5126,
      "count": 1200,
      "max": [
        14.28834342956543,
        12.751791954040527
      ],
      "min": [
        -14.28834342956543,
        -3.735011100769043
      ],
      "type": "VEC2"
    },
    {
      "bufferView": 0,
      "byteOffset": 181872,
      "componentType": 5125,
      "count": 5316,
      "type": "SCALAR"
    },
    {
      "bufferView": 2,
      "byteOffset": 325920,
      "componentType": 5126,
      "count": 800,
      "max": [
        2.2939839363098145,
        0.6849989891052246,
        6.564755916595459
      ],
      "min": [
        -2.448646068572998,
        0.28199899196624756,
        5.925364017486572
      ],
      "type": "VEC3"
    },
    {
      "bufferView": 2,
      "byteOffset": 335520,
      "componentType": 5126,
      "count": 800,
      "max": [
        1.0,
        1.0,
        1.0
      ],
      "min": [
        -1.0,
        -1.0,
        -1.0
      ],
      "type": "VEC3"
    },
    {
      "bufferView": 1,
      "byteOffset": 108640,
      "componentType": 5126,
      "count": 800,
      "max": [
        0.3799999952316284,
        0.5972269773483276
      ],
      "min": [
        -0.40299999713897705,
        -0.5972269773483276
      ],
      "type": "VEC2"
    },
    {
      "bufferView": 0,
      "byteOffset": 203136,
      "componentType": 5125,
      "count": 2304,
      "type": "SCALAR"
    }
  ],
  "asset": {
    "extras": {
      "author": "rtql8d (https://sketchfab.com/rtql8d)",
      "license": "CC-BY-4.0 (http://creativecommons.org/licenses/by/4.0/)",
      "source": "https://sketchfab.com/3d-models/iphone-air-66dd43c1660d430593a31652bd265531",
      "title": "iPhone Air"
    },
    "generator": "Sketchfab-16.74.0",
    "version": "2.0"
  },
  "bufferViews": [
    {
      "buffer": 0,
      "byteLength": 212352,
      "name": "floatBufferViews",
      "target": 34963
    },
    {
      "buffer": 0,
      "byteLength": 115040,
      "byteOffset": 212352,
      "byteStride": 8,
      "name": "floatBufferViews",
      "target": 34962
    },
    {
      "buffer": 0,
      "byteLength": 345120,
      "byteOffset": 327392,
      "byteStride": 12,
      "name": "floatBufferViews",
      "target": 34962
    }
  ],
  "buffers": [
    {
      "byteLength": 672512,
      "uri": "scene.bin"
    }
  ],
  "images": [
    {
      "uri": "textures/Glass_-_Heavy_Color_baseColor.jpeg"
    },
    {
      "uri": "textures/Plastic_-_Translucent_Matte_Blue_baseColor.jpeg"
    },
    {
      "uri": "textures/Plastic_-_Translucent_Matte_Blue_metallicRoughness.png"
    }
  ],
  "materials": [
    {
      "doubleSided": true,
      "name": "Aluminum_-_Anodized_Glossy_Blue",
      "pbrMetallicRoughness": {
        "baseColorFactor": [
          0.7156935005064807,
          0.7912979403326302,
          0.8631572134541021,
          1.0
        ],
        "metallicFactor": 0.9,
        "roughnessFactor": 0.09999999999999998
      }
    },
    {
      "doubleSided": true,
      "name": "Glass_Blue",
      "pbrMetallicRoughness": {
        "baseColorFactor": [
          0.061083291755238,
          0.05997983530827969,
          0.26651984652910465,
          1.0
        ],
        "roughnessFactor": 0.0
      }
    },
    {
      "doubleSided": true,
      "name": "Glass_-_Frosted_Light",
      "pbrMetallicRoughness": {
        "baseColorFactor": [
          0.64,
          0.64,
          0.64,
          1.0
        ],
        "metallicFactor": 0.0,
        "roughnessFactor": 0.8434915419926713
      }
    },
    {
      "doubleSided": true,
      "name": "Glass_-_Heavy_Color",
      "pbrMetallicRoughness": {
        "baseColorTexture": {
          "index": 0
        },
        "metallicFactor": 0.0,
        "roughnessFactor": 0.09999999999999998
      }
    },
    {
      "alphaMode": "BLEND",
      "doubleSided": true,
      "name": "Glass_-_Medium_Color",
      "pbrMetallicRoughness": {
        "baseColorFactor": [
          0.0,
          0.0,
          0.0,
          0.9
        ],
        "roughnessFactor": 0.0
      }
    },
    {
      "doubleSided": true,
      "name": "Plastic_-_Translucent_Matte_Blue",
      "pbrMetallicRoughness": {
        "baseColorTexture": {
          "index": 1
        },
        "metallicFactor": 0.0,
        "metallicRoughnessTexture": {
          "index": 2
        }
      }
    },
    {
      "doubleSided": true,
      "name": "Steel_-_Satin",
      "pbrMetallicRoughness": {
        "baseColorFactor": [
          0.7156935005064807,
          0.7912979403326302,
          0.8631572134541021,
          1.0
        ],
        "metallicFactor": 0.8,
        "roughnessFactor": 0.19999999999999996
      }
    },
    {
      "doubleSided": true,
      "name": "Steel_-_Satin_1",
      "pbrMetallicRoughness": {
        "baseColorFactor": [
          0.7156935005064807,
          0.7912979403326302,
          0.8631572134541021,
          1.0
        ],
        "metallicFactor": 0.8,
        "roughnessFactor": 0.19999999999999996
      }
    }
  ],
  "meshes": [
    {
      "name": "Object_0",
      "primitives": [
        {
          "attributes": {
            "NORMAL": 1,
            "POSITION": 0,
            "TEXCOORD_0": 2
          },
          "indices": 3,
          "material": 0,
          "mode": 4
        }
      ]
    },
    {
      "name": "Object_1",
      "primitives": [
        {
          "attributes": {
            "NORMAL": 5,
            "POSITION": 4,
            "TEXCOORD_0": 6
          },
          "indices": 7,
          "material": 1,
          "mode": 4
        }
      ]
    },
    {
      "name": "Object_2",
      "primitives": [
        {
          "attributes": {
            "NORMAL": 9,
            "POSITION": 8,
            "TEXCOORD_0": 10
          },
          "indices": 11,
          "material": 3,
          "mode": 4
        }
      ]
    },
    {
      "name": "Object_3",
      "primitives": [
        {
          "attributes": {
            "NORMAL": 13,
            "POSITION": 12,
            "TEXCOORD_0": 14
          },
          "indices": 15,
          "material": 4,
          "mode": 4
        }
      ]
    },
    {
      "name": "Object_4",
      "primitives": [
        {
          "attributes": {
            "NORMAL": 17,
            "POSITION": 16,
            "TEXCOORD_0": 18
          },
          "indices": 19,
          "material": 5,
          "mode": 4
        }
      ]
    },
    {
      "name": "Object_5",
      "primitives": [
        {
          "attributes": {
            "NORMAL": 21,
            "POSITION": 20,
            "TEXCOORD_0": 22
          },
          "indices": 23,
          "material": 2,
          "mode": 4
        }
      ]
    },
    {
      "name": "Object_6",
      "primitives": [
        {
          "attributes": {
            "NORMAL": 25,
            "POSITION": 24,
            "TEXCOORD_0": 26
          },
          "indices": 27,
          "material": 6,
          "mode": 4
        }
      ]
    },
    {
      "name": "Object_7",
      "primitives": [
        {
          "attributes": {
            "NORMAL": 29,
            "POSITION": 28,
            "TEXCOORD_0": 30
          },
          "indices": 31,
          "material": 7,
          "mode": 4
        }
      ]
    }
  ],
  "nodes": [
    {
      "children": [
        1
      ],
      "matrix": [
        -2.220446049250313e-16,
        6.123234262925839e-17,
        -1.0,
        0.0,
        -1.0,
        1.6081226229577287e-16,
        2.2204460492503136e-16,
        0.0,
        1.6081226229577292e-16,
        1.0,
        6.123234262925839e-17,
        0.0,
        0.0,
        0.0,
        0.0,
        1.0
      ],
      "name": "Sketchfab_model"
    },
    {
      "children": [
        2,
        3,
        4,
        5,
        6,
        7,
        8,
        9
      ],
      "name": "iPhone_Air.obj.cleaner.materialmerger.gles"
    },
    {
      "mesh": 0,
      "name": "Object_2"
    },
    {
      "mesh": 1,
      "name": "Object_3"
    },
    {
      "mesh": 2,
      "name": "Object_4"
    },
    {
      "mesh": 3,
      "name": "Object_5"
    },
    {
      "mesh": 4,
      "name": "Object_6"
    },
    {
      "mesh": 5,
      "name": "Object_7"
    },
    {
      "mesh": 6,
      "name": "Object_8"
    },
    {
      "mesh": 7,
      "name": "Object_9"
    }
  ],
  "samplers": [
    {
      "magFilter": 9729,
      "minFilter": 9987,
      "wrapS": 10497,
      "wrapT": 10497
    }
  ],
  "scene": 0,
  "scenes": [
    {
      "name": "Sketchfab_Scene",
      "nodes": [
        0
      ]
    }
  ],
  "textures": [
    {
      "sampler": 0,
      "source": 0
    },
    {
      "sampler": 0,
      "source": 1
    },
    {
      "sampler": 0,
      "source": 2
    }
  ]
}
